<?xml version="1.0" standalone="no"?>
<!DOCTYPE svg PUBLIC "-//W3C//DTD SVG 20010904//EN"
 "http://www.w3.org/TR/2001/REC-SVG-20010904/DTD/svg10.dtd">
<svg version="1.0" xmlns="http://www.w3.org/2000/svg"
 width="998.000000pt" height="998.000000pt" viewBox="0 0 998.000000 998.000000"
 preserveAspectRatio="xMidYMid meet">
<metadata>
Created by potrace 1.16, written by Peter Selinger 2001-2019
</metadata>
<g transform="translate(0.000000,998.000000) scale(0.100000,-0.100000)"
fill="#000000" stroke="none">
<path d="M4755 9034 c-16 -2 -79 -9 -140 -15 -734 -73 -1459 -415 -2010 -951
-607 -589 -962 -1339 -1036 -2188 -17 -191 -6 -587 19 -755 105 -678 372
-1270 793 -1760 106 -123 344 -355 459 -447 354 -282 760 -495 1175 -617 61
-18 115 -34 121 -36 6 -2 32 -39 57 -82 136 -234 422 -730 548 -951 79 -140
155 -265 168 -278 47 -47 129 -48 177 -3 14 13 60 84 103 159 43 74 187 324
321 555 133 231 265 459 292 507 l50 88 72 20 c393 115 755 287 1066 510 836
598 1355 1506 1441 2517 17 203 7 599 -19 768 -102 652 -334 1185 -736 1690
-103 130 -393 419 -526 524 -492 391 -1069 636 -1705 727 -104 14 -616 28
-690 18z m554 -930 c234 -31 475 -108 646 -207 125 -72 198 -129 316 -247 203
-203 322 -418 370 -670 18 -97 15 -319 -5 -415 -31 -145 -106 -307 -206 -447
-64 -91 -357 -380 -560 -553 -198 -169 -310 -279 -345 -339 -17 -29 -27 -68
-35 -131 -12 -109 -31 -541 -23 -561 3 -7 -5 -34 -16 -58 -38 -76 -35 -76
-470 -76 -412 0 -427 2 -468 53 -27 35 -36 212 -23 451 17 320 62 579 120 703
79 170 250 359 560 617 388 323 442 389 448 552 7 143 -38 248 -145 343 -112
100 -242 141 -446 141 -206 0 -334 -45 -462 -162 -105 -96 -181 -238 -230
-429 -19 -72 -36 -96 -81 -115 -27 -11 -81 -7 -427 36 -218 27 -406 54 -419
61 -60 32 -71 77 -52 211 88 631 588 1117 1268 1233 198 33 469 37 685 9z
m-204 -3999 c97 -25 165 -64 236 -134 103 -103 149 -212 149 -356 0 -142 -46
-252 -145 -352 -156 -156 -377 -193 -575 -96 -308 150 -377 572 -131 806 134
127 300 174 466 132z"/>
</g>
</svg>
